PathFileType	4	(X/Y/Z)	OpenSim_Sub03_CSStiffKnee_Magnet.trc
DataRate	CameraRate	NumFrames	NumMarkers	Units	OrigDataRate	OrigDataStartFrame	OrigNumFrames
100	100	26	8	m	100	1364	3637
Frame#	Time	torso_imu_offset_imu	pelvis_imu_offset_imu	tibia_r_imu_offset_imu	femur_r_imu_offset_imu	tibia_l_imu_offset_imu	femur_l_imu_offset_imu	toes_r_imu_offset_imu	toes_l_imu_offset_imu
				X1	Y1	Z1	X2	Y2	Z2	X3	Y3	Z3	X4	Y4	Z4	X5	Y5	Z5	X6	Y6	Z6	X7	Y7	Z7	X8		Y8	Z8	

1364	13.63000000	-0.88378900	-0.20263700	0.28222700	-0.68945300	0.12402300	-0.65161100	-0.50244100	-0.67236300	-0.07519500	-0.55004900	-0.78002900	-0.11450200	-0.75244100	0.25146500	0.20825200	-0.75146500	0.19799800	0.34765600	-0.73315400	-0.31762700	-0.45336900	-0.64038100	-0.25878900	-0.45068400
1365	13.64000000	-0.88378900	-0.20678700	0.26904300	-0.69165000	0.13037100	-0.65185500	-0.49169900	-0.67651400	-0.07739300	-0.54809600	-0.78198200	-0.11669900	-0.75463900	0.25146500	0.21069300	-0.75781200	0.19580100	0.34545900	-0.73950200	-0.32202100	-0.44921900	-0.64038100	-0.26098600	-0.44384800
1366	13.65000000	-0.88793900	-0.21118200	0.26709000	-0.69409200	0.13452100	-0.64038100	-0.47680700	-0.68481400	-0.07470700	-0.54834000	-0.77368200	-0.12158200	-0.75488300	0.25366200	0.21264600	-0.75122100	0.19360400	0.35205100	-0.74560500	-0.32617200	-0.44067400	-0.64941400	-0.25659200	-0.44604500
1367	13.66000000	-0.88989300	-0.21313500	0.26049800	-0.69433600	0.13867200	-0.63818400	-0.46826200	-0.69311500	-0.07885700	-0.55249000	-0.77368200	-0.12622100	-0.75000000	0.24707000	0.21972700	-0.75122100	0.19360400	0.34985400	-0.74975600	-0.32836900	-0.43042000	-0.65405300	-0.25463900	-0.43481400
1368	13.67000000	-0.88989300	-0.21118200	0.25610400	-0.70288100	0.14062500	-0.62890600	-0.44873000	-0.70971700	-0.08496100	-0.55249000	-0.77368200	-0.12622100	-0.75024400	0.25585900	0.22363300	-0.74902300	0.19360400	0.34985400	-0.75561500	-0.33862300	-0.42407200	-0.67211900	-0.24609400	-0.41235400
1369	13.68000000	-0.88989300	-0.21752900	0.24536100	-0.70752000	0.15332000	-0.62939500	-0.43164100	-0.72021500	-0.08471700	-0.55468800	-0.76757800	-0.13330100	-0.74609400	0.26025400	0.22802700	-0.74902300	0.19360400	0.35205100	-0.76171900	-0.34497100	-0.41137700	-0.68554700	-0.24853500	-0.38110400
1370	13.69000000	-0.89379900	-0.22583000	0.23681600	-0.71215800	0.15942400	-0.61792000	-0.41064500	-0.72631800	-0.09106400	-0.55883800	-0.76342800	-0.14038100	-0.73510700	0.27343800	0.23828100	-0.74682600	0.19580100	0.35668900	-0.77197300	-0.35131800	-0.39477500	-0.70361300	-0.24218800	-0.34741200
1371	13.70000000	-0.88940400	-0.22583000	0.23022500	-0.70800800	0.16796900	-0.61377000	-0.40185500	-0.73461900	-0.09082000	-0.56323200	-0.75708000	-0.14746100	-0.73095700	0.28198200	0.24462900	-0.74438500	0.18945300	0.36108400	-0.77392600	-0.35742200	-0.37182600	-0.71337900	-0.22485400	-0.33398400
1372	13.71000000	-0.89575200	-0.23022500	0.22387700	-0.70825200	0.16992200	-0.60668900	-0.38476600	-0.74731400	-0.09472700	-0.56958000	-0.75317400	-0.15454100	-0.72876000	0.28418000	0.25341800	-0.74023400	0.19824200	0.36108400	-0.78418000	-0.36401400	-0.34887700	-0.72070300	-0.20947300	-0.32495100
1373	13.72000000	-0.89770500	-0.23657200	0.21752900	-0.71899400	0.16772500	-0.60449200	-0.36572300	-0.75341800	-0.09008800	-0.57836900	-0.73852500	-0.15747100	-0.72192400	0.28418000	0.26440400	-0.73803700	0.19824200	0.36792000	-0.79028300	-0.37646500	-0.32568400	-0.72094700	-0.20068400	-0.33178700
1374	13.73000000	-0.89331100	-0.23852500	0.21093800	-0.71899400	0.16772500	-0.59741200	-0.34252900	-0.75976600	-0.09204100	-0.58520500	-0.72216800	-0.16259800	-0.71337900	0.29296900	0.26611300	-0.73828100	0.20043900	0.36328100	-0.79614300	-0.39086900	-0.29418900	-0.72338900	-0.19189500	-0.33422900
1375	13.74000000	-0.89331100	-0.24072300	0.20874000	-0.72534200	0.16967800	-0.59741200	-0.32128900	-0.77221700	-0.09155300	-0.59375000	-0.71386700	-0.16748000	-0.71167000	0.31054700	0.27197300	-0.73608400	0.20263700	0.37011700	-0.79785200	-0.40942400	-0.26074200	-0.71899400	-0.19189500	-0.33422900
1376	13.75000000	-0.89770500	-0.24072300	0.21093800	-0.72534200	0.16333000	-0.59497100	-0.30224600	-0.78051800	-0.09130900	-0.60888700	-0.69946300	-0.17504900	-0.70092800	0.33032200	0.27319300	-0.73144500	0.19384800	0.37451200	-0.79492200	-0.44018600	-0.22485400	-0.71899400	-0.19409200	-0.32739300
1377	13.76000000	-0.89746100	-0.24487300	0.19799800	-0.73608400	0.16552700	-0.59033200	-0.28515600	-0.78881800	-0.09545900	-0.61792000	-0.68090800	-0.18042000	-0.69897500	0.33471700	0.26831100	-0.73168900	0.20043900	0.37451200	-0.78588900	-0.47290000	-0.17627000	-0.71679700	-0.19189500	-0.33642600
1378	13.77000000	-0.89526400	-0.24707000	0.19360400	-0.73193400	0.16967800	-0.58593800	-0.27050800	-0.78881800	-0.08642600	-0.62866200	-0.66650400	-0.17627000	-0.69262700	0.34790000	0.27221700	-0.73168900	0.20703100	0.37451200	-0.77050800	-0.50341800	-0.12988300	-0.72314500	-0.19848600	-0.32959000
1379	13.78000000	-0.89941400	-0.25341800	0.18945300	-0.73193400	0.17382800	-0.58837900	-0.24731400	-0.79296900	-0.07080100	-0.64184600	-0.64990200	-0.18627900	-0.68579100	0.34790000	0.27661100	-0.72998000	0.21777300	0.37890600	-0.75097700	-0.53613300	-0.08129900	-0.72094700	-0.19848600	-0.33398400
1380	13.79000000	-0.89282200	-0.25756800	0.18530300	-0.74047900	0.17163100	-0.57666000	-0.23681600	-0.79931600	-0.06152300	-0.64868200	-0.62915000	-0.19165000	-0.68383800	0.35888700	0.28491200	-0.72387700	0.23095700	0.37182600	-0.73999000	-0.56274400	-0.04345700	-0.71411100	-0.20068400	-0.32275400
1381	13.80000000	-0.89697300	-0.25756800	0.17651400	-0.74072300	0.17797900	-0.57910200	-0.21777300	-0.80346700	-0.05468800	-0.66186500	-0.60864300	-0.20166000	-0.69067400	0.36328100	0.27807600	-0.72192400	0.24194300	0.37182600	-0.71435500	-0.59106400	-0.00952100	-0.72534200	-0.20507800	-0.32275400
1382	13.81000000	-0.89477500	-0.25976600	0.17211900	-0.73437500	0.17797900	-0.57910200	-0.20703100	-0.81176800	-0.04760700	-0.66626000	-0.59423800	-0.21118200	-0.68408200	0.36767600	0.28222700	-0.71557600	0.24853500	0.38305700	-0.69531200	-0.60302700	-0.00512700	-0.71630900	-0.20507800	-0.31835900
1383	13.82000000	-0.89038100	-0.26611300	0.17016600	-0.73437500	0.17797900	-0.58154300	-0.19653300	-0.81372100	-0.05419900	-0.67504900	-0.58374000	-0.21630900	-0.68212900	0.37207000	0.28637700	-0.71582000	0.25708000	0.36718800	-0.68042000	-0.61084000	-0.00903300	-0.72070300	-0.20947300	-0.32739300
1384	13.83000000	-0.89453100	-0.26611300	0.17016600	-0.73461900	0.19067400	-0.58203100	-0.19043000	-0.81176800	-0.07226600	-0.68603500	-0.56518600	-0.21704100	-0.67749000	0.37207000	0.28198200	-0.71411100	0.26806600	0.36474600	-0.67187500	-0.61694300	-0.01318400	-0.71606400	-0.20947300	-0.32739300
1385	13.84000000	-0.89013700	-0.27026400	0.16162100	-0.73242200	0.18847700	-0.57495100	-0.18188500	-0.81152300	-0.09887700	-0.69262700	-0.55493200	-0.21508800	-0.67114300	0.38525400	0.28125000	-0.71020500	0.28100600	0.37133800	-0.66552700	-0.62500000	-0.00659200	-0.72290000	-0.20947300	-0.31835900
1386	13.85000000	-0.89868200	-0.27026400	0.16821300	-0.73486300	0.19702100	-0.58227500	-0.18847700	-0.80542000	-0.10595700	-0.69702100	-0.54467800	-0.20874000	-0.67797900	0.38964800	0.28320300	-0.70581100	0.28759800	0.36669900	-0.65918000	-0.62280300	-0.01074200	-0.72949200	-0.21191400	-0.31835900
1387	13.86000000	-0.89013700	-0.27441400	0.16186500	-0.73291000	0.20117200	-0.58227500	-0.18432600	-0.80542000	-0.11254900	-0.70361300	-0.53442400	-0.21142600	-0.67114300	0.38525400	0.28125000	-0.69946300	0.29003900	0.36889600	-0.65307600	-0.62060500	-0.02124000	-0.72509800	-0.21191400	-0.31616200
1388	13.87000000	-0.89233400	-0.26806600	0.15942400	-0.73071300	0.20312500	-0.57543900	-0.19067400	-0.80127000	-0.11499000	-0.70849600	-0.51367200	-0.20752000	-0.67358400	0.39184600	0.28979500	-0.70434600	0.30493200	0.37329100	-0.66162100	-0.61059600	-0.02783200	-0.72265600	-0.21167000	-0.32055700
1389	13.88000000	-0.89209000	-0.27880900	0.15966800	-0.72460900	0.20752000	-0.57568400	-0.20117200	-0.80127000	-0.10839800	-0.71313500	-0.50341800	-0.20117200	-0.66040000	0.39428700	0.28515600	-0.69799800	0.31591800	0.36865200	-0.66186500	-0.60034200	-0.03613300	-0.72729500	-0.20971700	-0.32055700
